<svg xmlns="http://www.w3.org/2000/svg" viewBox="0 0 675 107" style="enable-background:new 0 0 675 107" xml:space="preserve"><path d="m0 15.9 96.8 3.9 96 1 96.8-18.4 96-2.4 96.8 4.8 96 26.6L675 19.3v87.5H0V15.9z" style="fill:#cc70ff"/><path d="m0 30 96.8 9.7 96 1.9 96.8-31.9 96 18.4L482.4 46l96-21.7L675 13.5v93.3H0V30z" style="fill:#c35dff"/><path d="m0 29.5 96.8 11.1 96-3.4 96.8 5.8 96 2.4 96.8-11.6 96 2.4L675 57v49.8H0V29.5z" style="fill:#ba49ff"/><path d="m0 66.7 96.8-17.4 96 5.3 96.8 16.9 96-1.4 96.8 8.2 96-22.2L675 58v48.8H0V66.7z" style="fill:#af30ff"/><path d="m0 70.1 96.8 17.4 96 1.9 96.8-18.8 96 14.5 96.8-9.2 96 .5 96.8 2.9v27.5H0V70.1z" style="fill:#a400ff"/></svg>