<svg version="1.1" id="Layer_1" xmlns="http://www.w3.org/2000/svg" x="0" y="0" viewBox="0 0 145 138.5" style="enable-background:new 0 0 145 138.5" xml:space="preserve">
    <style>
        .st0{fill:#01579b}.st1{fill:#40c4ff}.st3{opacity:.2;fill:#fff;enable-background:new}
    </style>
    <path class="st0" d="M31.7 109.5 8.4 86.2c-2.8-2.8-4.5-6.8-4.5-10.7 0-1.8 1-4.6 1.8-6.3l21.5-44.7 4.5 85z"/>
    <path class="st1" d="M111.3 29 88 5.7c-2-2-6.3-4.5-9.8-4.5-3.1 0-6.1.6-8 1.8l-43 21.5 84.1 4.5zM59.4 137.2h56.4v-24.1L73.7 99.7l-38.5 13.4z"/>
    <path d="M27.2 97c0 7.2.9 8.9 4.5 12.5l3.6 3.6h80.5L76.4 68.3 27.2 24.5V97z" style="fill:#29b6f6"/>
    <path class="st0" d="M98.8 24.5H27.2l88.6 88.6H140V57.6L111.3 29c-4-4.1-7.6-4.5-12.5-4.5z"/>
    <path class="st3" d="M32.6 110.4c-3.6-3.6-4.5-7.1-4.5-13.4V25.4l-.9-.9V97c0 6.3 0 8 5.4 13.4l2.7 2.7-2.7-2.7z"/>
    <path style="opacity:.2;fill:#263238;enable-background:new" d="M139 56.7v55.5h-24.1l.9.9h24.1V57.6z"/>
    <path class="st3" d="M111.3 29c-4.4-4.4-8.1-4.5-13.4-4.5H27.2l.9.9h69.8c2.7 0 9.4-.5 13.4 3.6z"/>
    <radialGradient id="SVGID_1_" cx="71.915" cy="705.781" r="68" gradientTransform="translate(.01 -636.556)" gradientUnits="userSpaceOnUse">
        <stop offset="0" style="stop-color:#fff;stop-opacity:.1"/>
        <stop offset="1" style="stop-color:#fff;stop-opacity:0"/>
    </radialGradient>
    <path d="M139 56.7 111.3 29 88 5.7c-2-2-6.3-4.5-9.8-4.5-3.1 0-6.1.6-8 1.8l-43 21.5L5.7 69.2c-.8 1.6-1.8 4.5-1.8 6.3 0 3.9 1.7 7.9 4.5 10.7l21.4 21.3c.5.6 1.1 1.3 1.8 2l.9.9 2.7 2.7 23.3 23.3.9.9h56.4v-24.2H140V57.6l-1-.9z" style="opacity:.2;fill:url(#SVGID_1_);enable-background:new"/>
</svg>
