<svg xmlns="http://www.w3.org/2000/svg" width="44" height="44" fill="none">
    <g clip-path="url(#clip0)">
        <path fill="url(#pattern0)" d="M9.893 18.006h31.328v24.421H9.893z"/>
        <path d="M37.063 20.038H23.706L12.02 31.727l6.677 6.677 18.366-18.366ZM8.68 28.386 2 21.706 23.706 0h13.358L8.68 28.386Z" fill="#54C5F8"/>
        <path d="m18.698 38.404 5.008 5.009h13.358l-11.69-11.686-6.676 6.677Z" fill="#01579B"/>
        <path d="m18.698 38.404 9.905-3.43-3.228-3.247-6.677 6.677Z" fill="url(#paint0_linear)"/>
        <path d="m18.697 25.046-6.678 6.677 6.678 6.678 6.677-6.678-6.677-6.677Z" fill="#29B6F6"/>
        <path d="M37.064 20.038 25.378 31.724l11.686 11.689H23.706l-5.008-5.01-6.68-6.68 11.688-11.685h13.358ZM23.706 0 2 21.706l6.68 6.68L37.064 0H23.706Z" fill="url(#paint1_radial)"/>
    </g>
</svg>
