<svg xmlns="http://www.w3.org/2000/svg" xmlns:xlink="http://www.w3.org/1999/xlink" version="1.1" id="Layer_1" x="0px" y="0px" viewBox="0 0 1459.4 502.1" style="enable-background:new 0 0 1459.4 502.1;" xml:space="preserve">
<style type="text/css">
	.st0{fill:#1E1A1D;}
	.st1{fill:#CC70FF;}
	.st2{fill:#C04EFE;}
	.st3{fill:#A400FF;}
	.st4{fill:#FFFFFF;}
	.st5{font-family:'MyriadPro-Regular';}
	.st6{font-size:127.9426px;}
</style>
<path class="st0" d="M1417.9,502.1H41.5C18.6,502.1,0,483.5,0,460.6V41.5C0,18.6,18.6,0,41.5,0h1376.4c22.9,0,41.5,18.6,41.5,41.5  v419.1C1459.4,483.5,1440.8,502.1,1417.9,502.1z"/>
<g>
	<defs>
		<path id="SVGID_1_" d="M1374.4,29.5L1374.4,29.5c32,0,58,26,58,58v0c0,32-26,58-58,58h0c-32,0-58-26-58-58v0    C1316.4,55.5,1342.4,29.5,1374.4,29.5z"/>
	</defs>
	<clipPath id="SVGID_00000047756681403604978560000001379829888474256015_">
		<use xlink:href="#SVGID_1_" style="overflow:visible;"/>
	</clipPath>
	<g style="clip-path:url(#SVGID_00000047756681403604978560000001379829888474256015_);">
		
			<image style="overflow:visible;" width="460" height="460" xlink:href="https://avatars.githubusercontent.com/u/31346263?v=4" transform="matrix(0.2522 0 0 0.2522 1316.4001 29.5)">
		</image>
	</g>
</g>
<path class="st1" d="M220.8,204c-3.5-2.8-7-5.6-10.7-8.2c-13.6-10-27.2-19.9-40.8-29.8c-0.6-0.5-1.2-1-1.8-1.5  c50.1-35.2,100-70.4,150.1-105.6c50.1,35,100.4,70.1,151.1,105.5c-2.2,1.6-4.3,3.3-6.5,4.9c-15,11-30.1,22-45.1,33  c-0.7,0.5-1.3,1.2-2.2,2c-2.2,1.5-4.3,2.8-6.3,4.2c-14.3,10.2-28.6,20.5-42.9,30.7c-10.9,7.8-21.9,15.6-32.9,23.4  c-5.1,3.6-10.2,7.1-15.3,10.7c-2.2-1.5-4.3-2.9-6.2-4.3c-15.4-11-30.7-22.1-46.1-33.2c-11.2-8.1-22.4-16.2-33.6-24.3  C228,208.9,224.4,206.5,220.8,204L220.8,204z"/>
<path class="st2" d="M220.7,204.2c3.7,2.3,7.4,4.8,10.9,7.3c11.2,8.1,22.4,16.2,33.6,24.3c15.4,11.1,30.7,22.1,46.1,33.2  c1.9,1.4,4,2.8,6.2,4.3c5-3.5,10.1-7,15.3-10.7c11-7.8,22-15.6,32.9-23.4c14.3-10.2,28.6-20.5,42.9-30.7c1.9-1.4,4.1-2.7,6.3-4  c8,5.3,15.9,10.5,23.7,15.9c9.4,6.4,18.8,13,28.2,19.5c0.6,0.4,1.2,1,2.2,1.7c-16.1,11.9-32,23.6-48.2,35.5c-0.5,0.3-0.8,0.4-1,0.5  c-17.6,12.7-35.1,25.4-52.7,38c-11.9,8.6-23.9,17-35.8,25.5c-4.6,3.2-9.2,6.5-13.7,9.7c-14.5-10.4-28.7-20.7-42.9-30.9  c-15.2-11-30.4-22-45.7-33c-4.5-3.2-9-6.4-13.6-9.6c-3.4-2.5-6.7-5.2-10-7.7c-12.2-9-24.4-17.9-36.6-26.8c-0.4-0.3-0.8-0.7-1.5-1.3  C185.1,228.8,202.8,216.6,220.7,204.2L220.7,204.2z"/>
<path class="st3" d="M215.2,277.2c4.7,3.1,9.2,6.3,13.7,9.5c15.2,11,30.5,22,45.7,33c14.2,10.2,28.4,20.5,42.9,30.9  c4.5-3.2,9.1-6.4,13.7-9.7c12-8.5,23.9-16.9,35.8-25.5c17.6-12.6,35.1-25.3,52.7-38c0.2-0.2,0.5-0.2,0.9-0.4  c15.1,10.2,30,20.5,44.9,30.8c1.1,0.8,2.2,1.5,3.5,2.4c-8.3,6.1-16.4,12.1-24.5,18c-15.9,11.6-31.7,23.4-47.7,34.9  c-18.3,13.1-36.8,25.9-55.1,38.9c-7.4,5.2-14.7,10.4-21.9,15.8c-1.6,1.2-2.8,1.3-4.6,0.1c-13.9-10.1-27.9-20-41.8-30  c-12.8-9.3-25.6-18.5-38.4-27.8c-18.2-13.3-36.3-26.6-54.5-39.9c-4.4-3.2-8.9-6.5-13.6-9.9C183.3,299.2,199.2,288.3,215.2,277.2  L215.2,277.2z"/>
<text xmlns="http://www.w3.org/2000/svg" style="font-family: Roboto;" transform="matrix(1 0 0 1 630.4001 283.5469)" class="st4 st5 st6">LayersTex</text>
</svg>