<svg xmlns="http://www.w3.org/2000/svg" viewBox="0 0 130.4 289.1" style="enable-background:new 0 0 130.4 289.1" xml:space="preserve">
    <path d="M128.1 114.1c-15.3-67.5-47.2-85.5-55.4-98.2-3.4-5.6-6.3-11.4-8.9-17.4-.4 6-1.2 9.8-6.3 14.3C47.3 21.9 3.8 57.4.1 134.1c-3.4 71.6 52.6 115.7 60 120.2 5.7 2.8 12.6.1 16-2.5 27-18.5 63.9-67.9 52-137.7" style="fill:#10aa50"/>
    <path d="M66.2 216.2c-1.4 17.7-2.4 28-6 38.1 0 0 2.3 16.9 4 34.7H70c1.4-12.6 3.5-25.1 6.4-37.4-7.6-3.6-9.9-19.8-10.2-35.4z" style="fill:#b8c4c2"/>
    <path d="M76.4 251.7c-7.6-3.5-9.8-20.1-10.2-35.5 1.9-25.4 2.4-50.9 1.7-76.4-.5-13.3.1-123.6-3.4-139.8 2.4 5.5 5.1 10.8 8.2 15.9 8.1 12.7 40.1 30.7 55.4 98.2 11.9 69.7-24.8 119-51.7 137.6z" style="fill:#12924f"/>
</svg>
