<svg xmlns="http://www.w3.org/2000/svg" viewBox="0 0 300 298" style="enable-background:new 0 0 300 298" xml:space="preserve">
    <path fill="#0000fe" xmlns="http://www.w3.org/2000/svg" class="st0" d="M21.5 4.7C51 20.3 69.3 42.8 81 77.8c5.8 17.3 10.1 41.9 11.2 63.7l.3 5 7.4 1.2c9.6 1.6 14.9 4.3 20.6 10.4 7.7 8.2 11.5 19.7 13 38.9.7 9.1-.8 30.8-2.9 44.3-.8 4.5-1.2 8.4-1 8.6.8.8 7.7-6.4 13.3-13.9 9.9-13.2 16.8-28.8 20.6-46 2.2-10.2 3.1-37 1.6-49.6-4.7-39.5-18-70.2-40.5-92.9-11.3-11.4-20.1-17.9-33.7-24.9C68.7 11 49.3 5.3 16 .5c-2.8-.4-1.6.4 5.5 4.2z"/>
    <path d="M221 95.6c0 6.3-3 24.4-6.1 37.3-8.9 36.3-24.9 67.4-49.2 95.3-5.5 6.3-6.4 7.8-5.2 8.8 2.5 2 24.7 13 26.4 13 2.1 0 12.8-16.8 20.7-32.5 19.7-39.3 25.3-80 16.3-120-1.4-6.3-2.9-7.3-2.9-1.9zM26.2 123.7c-22 31-27 42.3-25.7 59 1.5 20.6 10.6 38.5 25.8 51.1 6.3 5.2 21.1 13.9 26.1 15.4 3.5 1.1 4.3.9 9.2-1.6 3-1.6 7-4.6 9-6.8 3.4-3.8 3.6-4.4 3.2-9.2-.4-4.4-1.5-6.7-8-16.1-18.4-27.1-20.3-42-6-49.8 8.9-4.9 16.7-4.5 23.3 1 5.9 5 8.9 14.4 9.2 29.2.2 8.6.3 9 1.5 6.1 4.8-11.8 6.5-30.3 3.8-41-3.3-12.7-12.1-24.8-26.1-36-6.9-5.5-29.5-21-30.6-21-.4 0-7 8.9-14.7 19.7zm239.1 33.5c-2.5 16-11.7 38.1-22.4 54-6.9 10.4-18.4 24.2-29.3 35.4-5.6 5.9-9.8 10.8-9.2 11 5.2 1.7 15.4 3.7 21.2 4.1l7.1.6 7.1-10.7c18.9-28.6 27-51.5 27.9-79.1.2-8.3.1-16.7-.4-18.8-.8-3.8-.8-3.8-2 3.5zm20.3 57.3c-7.2 13.6-16.8 26.7-27.8 37.6l-9.7 9.7 4.2-1c11.1-2.6 20.9-6.1 23.6-8.4 5.9-4.9 11.8-21.1 14.1-38.3.6-4.5 1-8.5.8-8.6-.2-.2-2.5 3.8-5.2 9z" fill="#fe0000"/>
    <path fill="#0000fe" xmlns="http://www.w3.org/2000/svg" class="st0" d="M293 242.6c-5.9 6-20.8 17.1-29.1 21.8-15.1 8.3-32.1 11.5-44.6 8.3-3.4-.9-14.2-5.4-24-10.1-9.8-4.6-20.6-9.2-23.9-10-13.7-3.5-28.2-1.2-46.4 7.5-12 5.7-12 4.8.5 12.1 15.9 9.4 32.5 15.9 50.7 20 8.6 1.9 13 2.3 26.8 2.2 14.5-.1 17.7-.4 26.4-2.7 19.5-5.2 37.1-16 51.9-31.7 7.8-8.2 18.3-22 16.9-22-.4 0-2.8 2.1-5.2 4.6z"/>
    <path fill="#0000fe" xmlns="http://www.w3.org/2000/svg" class="st0" d="M67 252.6c-16.9 4.4-35.9 18.1-51.9 37.2l-4.4 5.3 5.4-.6c31.5-3.8 63.6-12.6 87.4-23.9l11-5.2-6.3-4.7c-10.8-8-15.6-9.7-26.4-9.6-5.1 0-11.8.7-14.8 1.5z"/>
</svg>
