<?xml version="1.0" encoding="utf-8"?>
<svg version="1.1" id="Layer_1" xmlns="http://www.w3.org/2000/svg" xmlns:xlink="http://www.w3.org/1999/xlink" x="0px" y="0px"
	 viewBox="0 0 730.43 209.17" style="enable-background:new 0 0 730.43 209.17;" xml:space="preserve">
<style type="text/css">
	.st0{fill:#201C1C;}
	.st1{fill:#FFFFFF;}
	.st2{font-family:'Montserrat', sans-serif;}
	.st3{font-size:72px;}
	.st4{font-size:24px;}
</style>
<path class="st0" d="M706.96,209.17H23.48C10.51,209.17,0,198.66,0,185.7V23.48C0,10.51,10.51,0,23.48,0h683.48
	c12.97,0,23.48,10.51,23.48,23.48V185.7C730.43,198.66,719.92,209.17,706.96,209.17z"/>
<text transform="matrix(1 0 0 1 66.2522 90.066)" class="st1 st2 st3">55k+</text>
<text transform="matrix(1 0 0 1 74.6882 161.3834)" class="st1 st2 st4">Characters</text>
<text transform="matrix(1 0 0 1 296.5221 89.0953)" class="st1 st2 st3">2.5k+</text>
<text transform="matrix(1 0 0 1 589.5655 89.0953)" class="st1 st2 st3">1</text>
<text transform="matrix(1 0 0 1 340.9807 161.2404)" class="st1 st2 st4">Lines</text>
<text transform="matrix(1 0 0 1 544.2169 161.3841)" class="st1 st2 st4">Developer</text>
</svg>
