<svg xmlns="http://www.w3.org/2000/svg" viewBox="0 0 336 600" style="enable-background:new 0 0 336 600" xml:space="preserve"><path d="m274 0 50 86-61 85 24 86-5 86 17 86-15 85 52 86H0V0h274z" style="fill:#cc70ff"/><path d="m266 0 12 86-52 85-18 86 50 86-4 86-31 85-14 86H0V0h266z" style="fill:#c35dff"/><path d="m142 0 59 86 20 85-59 86 1 86 73 86 2 85-46 86H0V0h142z" style="fill:#ba49ff"/><path d="m133 0 36 86-62 85 28 86-30 86 17 86-25 85 76 86H0V0h133z" style="fill:#af30ff"/><path d="M110 0 87 86l-5 85-38 86-1 86 38 86 4 85 13 86H0V0h110z" style="fill:#a400ff"/></svg>